<?xml version="1.0" encoding="UTF-8" standalone="no"?>
<!-- Created with Inkscape (http://www.inkscape.org/) -->

<svg
   xmlns:dc="http://purl.org/dc/elements/1.1/"
   xmlns:cc="http://creativecommons.org/ns#"
   xmlns:rdf="http://www.w3.org/1999/02/22-rdf-syntax-ns#"
   xmlns:svg="http://www.w3.org/2000/svg"
   xmlns="http://www.w3.org/2000/svg"
   xmlns:sodipodi="http://sodipodi.sourceforge.net/DTD/sodipodi-0.dtd"
   xmlns:inkscape="http://www.inkscape.org/namespaces/inkscape"
   id="svg2"
   version="1.1"
   inkscape:version="0.48.4 r9939"
   width="512"
   height="512"
   sodipodi:docname="samouri-logo-vector.svg">
  <metadata
     id="metadata8">
    <rdf:RDF>
      <cc:Work
         rdf:about="">
        <dc:format>image/svg+xml</dc:format>
        <dc:type
           rdf:resource="http://purl.org/dc/dcmitype/StillImage" />
        <dc:title></dc:title>
      </cc:Work>
    </rdf:RDF>
  </metadata>
  <defs
     id="defs6" />
  <sodipodi:namedview
     pagecolor="#ffffff"
     bordercolor="#666666"
     borderopacity="1"
     objecttolerance="10"
     gridtolerance="10"
     guidetolerance="10"
     inkscape:pageopacity="0"
     inkscape:pageshadow="2"
     inkscape:window-width="1920"
     inkscape:window-height="1080"
     id="namedview4"
     showgrid="false"
     inkscape:zoom="0.65186406"
     inkscape:cx="-114.98466"
     inkscape:cy="670.97096"
     inkscape:window-x="0"
     inkscape:window-y="0"
     inkscape:window-maximized="0"
     inkscape:current-layer="svg2" />
  <path
     inkscape:connector-curvature="0"
     id="path2989"
     d="m 398.15052,497.40366 c 2.05184,-2.05183 0.34529,-7.81071 -9.61415,-32.44335 -11.25542,-27.83799 -24.5635,-51.05224 -37.77207,-65.88852 -2.10232,-2.36138 -3.36358,-4.75225 -2.80281,-5.31302 1.78032,-1.78032 28.12018,17.16543 64.42669,46.34086 19.34079,15.54199 37.31142,29.92381 39.93473,31.95961 l 4.76967,3.70142 4.5979,-5.34539 c 2.52884,-2.93996 4.34272,-6.02651 4.03082,-6.85899 -0.31189,-0.8325 -12.60982,-11.13372 -27.32872,-22.8916 -14.71891,-11.7579 -31.49272,-25.17628 -37.27515,-29.81864 -5.78242,-4.64238 -20.56121,-16.46093 -32.84175,-26.26348 -14.98124,-11.95828 -26.46025,-23.06733 -34.88571,-33.76137 l -12.55746,-15.93857 -0.002,-26.92815 c -8.8e-4,-14.81049 -0.98566,-36.39031 -2.18842,-47.95516 -1.20274,-11.56485 -2.03023,-24.6461 -1.83885,-29.06943 0.25976,-6.00386 -1.92275,-13.02952 -8.61037,-27.71742 -11.59662,-25.46939 -14.63399,-29.61557 -23.6811,-32.32616 -4.10035,-1.2285 -19.01122,-2.20801 -20.1058,-3.19611 -0.76626,-0.69171 2.40483,-10.91359 2.71115,-24.12497 0.54393,-23.45977 -6.63094,-44.399451 -19.17292,-55.955586 -9.07262,-8.359477 -19.60875,-10.018909 -38.53894,-6.069808 -20.93531,4.367385 -29.42956,19.021444 -28.85906,56.594484 0.48775,32.12242 24.61352,23.03537 -24.93335,15.69054 -37.05153,-5.49252 -34.06845,-3.40595 -32.73321,-9.139 2.76625,-11.87728 15.69798,-41.12018 19.22294,-43.46943 3.68252,-2.454255 24.63321,-9.200864 100.35615,-32.316996 36.11767,-11.02572 76.79269,-23.488157 126.16203,-38.654801 15.24457,-4.683249 30.72809,-9.436346 34.40782,-10.562438 6.32513,-1.93565 0.84844,-0.440783 8.42881,-2.940741 -4.14507,-0.917928 -17.30463,-2.589276 -22.17038,-2.183989 -23.78313,7.110817 -93.07014,23.715373 -132.49168,35.058448 -15.77026,4.537684 -46.92298,13.516138 -69.22827,19.952122 -41.52667,11.982104 -47.23245,13.11546 -49.28757,9.790211 -1.96448,-3.178595 -6.60472,-2.171459 -13.2109,2.867319 -3.44599,2.628375 -7.73983,4.778864 -9.5419,4.778864 -1.80206,0 -6.80566,3.877896 -11.11914,8.617554 -8.754804,9.619817 -20.426722,14.613727 -25.096839,10.737857 -2.113615,-1.75413 -5.221368,-1.14669 -14.318854,2.79877 -12.704152,5.50965 -16.238734,9.46462 -18.278927,20.45307 -1.317227,7.09451 -0.979992,7.63914 16.378526,26.45091 l 17.723432,19.20724 -4.233405,15.6031 c -2.328378,8.58171 -5.680407,20.81157 -7.44895,27.17748 l -3.215564,11.57437 15.511793,15.10572 c 14.654445,14.27084 16.707043,15.56266 37.137028,23.37259 12.23482,4.67711 29.61006,9.60683 40.01346,11.35267 l 18.38821,3.08582 7.18166,23.43393 c 5.8827,19.19538 8.17514,24.16846 12.6744,27.49491 4.55732,3.36937 5.48561,5.43476 5.45078,12.1278 -0.0231,4.43676 -1.8369,11.93772 -4.03067,16.6688 -2.19377,4.73107 -8.07326,18.17029 -13.06555,29.86492 -6.84977,16.0459 -10.92483,22.93249 -16.60852,28.06736 -8.59785,7.76764 -19.99546,29.04559 -31.28065,58.39715 -4.18625,10.88801 -7.61138,20.13511 -7.61138,20.54912 0,0.414 59.84504,0.75274 132.98898,0.75274 106.834,0 133.47959,-0.49061 135.48361,-2.49464 z"
     style="fill:#000000"
     sodipodi:nodetypes="cssssscscsssscssssssssssssssssccsssssssssscsscssscssssssssssc" />
</svg>
